<svg xmlns="http://www.w3.org/2000/svg" width="82.832" height="20.785" viewBox="0 0 82.832 20.785">
  <g id="Grupo_4" data-name="Grupo 4" transform="translate(-141.999 -151.742)">
    <path id="Trazado_12" data-name="Trazado 12" d="M4.878,35.049,0,35.766V19.813h4.81v2.52a4.142,4.142,0,0,1,1.653-2.057,4.21,4.21,0,0,1,2.184-.624,5.637,5.637,0,0,1,2.9.751,5.534,5.534,0,0,1,2.034,2.069,6.11,6.11,0,0,1,.75,3.075,6.371,6.371,0,0,1-.75,3.121,5.613,5.613,0,0,1-2.034,2.139,5.511,5.511,0,0,1-2.9.774,4.158,4.158,0,0,1-2.312-.6,4.08,4.08,0,0,1-1.456-1.734Zm2.54-7.121a2.263,2.263,0,0,0,1.665-.67,2.346,2.346,0,0,0,0-3.283A2.264,2.264,0,0,0,7.418,23.3,2.266,2.266,0,0,0,5.8,23.94a2.144,2.144,0,0,0-.671,1.63A2.293,2.293,0,0,0,5.8,27.246a2.185,2.185,0,0,0,1.618.682" transform="translate(142 136.761)"/>
    <path id="Trazado_13" data-name="Trazado 13" d="M20.16,31.582a5.605,5.605,0,0,1-2.67-.555A3.377,3.377,0,0,1,16,29.523a4.775,4.775,0,0,1-.463-2.127V15.7l4.879-.717V26.726a1.009,1.009,0,0,0,.346.821,1.366,1.366,0,0,0,.9.289,2.457,2.457,0,0,0,1.109-.278l.347,3.214a4.106,4.106,0,0,1-1.41.6,6.6,6.6,0,0,1-1.549.208" transform="translate(142 136.76)"/>
    <path id="Trazado_14" data-name="Trazado 14" d="M28.807,31.581a5.519,5.519,0,0,1-4.936-2.913,6.36,6.36,0,0,1-.751-3.121,6.1,6.1,0,0,1,.751-3.075A5.5,5.5,0,0,1,25.917,20.4a5.652,5.652,0,0,1,2.89-.751,4.275,4.275,0,0,1,2.2.624,4.018,4.018,0,0,1,1.642,2.057v-2.52h4.809V31.4H32.6v-2.15a4.228,4.228,0,0,1-1.48,1.734,4.158,4.158,0,0,1-2.312.6m1.228-3.653a2.188,2.188,0,0,0,1.619-.682,2.3,2.3,0,0,0,.67-1.676,2.15,2.15,0,0,0-.67-1.63,2.389,2.389,0,0,0-3.283.035,2.343,2.343,0,0,0,0,3.283,2.256,2.256,0,0,0,1.664.67" transform="translate(142.001 136.761)"/>
    <path id="Trazado_15" data-name="Trazado 15" d="M39.3,31.4V19.813h4.809v2.52A4.224,4.224,0,0,1,45.7,20.345a4.46,4.46,0,0,1,2.509-.694,4.245,4.245,0,0,1,3.514,1.561,6.889,6.889,0,0,1,1.249,4.4V31.4H48.089V25.362q0-2.058-1.665-2.058a2.032,2.032,0,0,0-1.618.728,2.9,2.9,0,0,0-.625,1.954V31.4Z" transform="translate(142.001 136.761)"/>
    <path id="Trazado_16" data-name="Trazado 16" d="M59.44,31.581a5.6,5.6,0,0,1-2.67-.555,3.384,3.384,0,0,1-1.492-1.5,4.788,4.788,0,0,1-.462-2.127V22.68H53.1V19.813h2.058l2.15-3.653h2.381v3.653h2.913V22.68H59.694v4.046a1.01,1.01,0,0,0,.347.821,1.366,1.366,0,0,0,.9.289,2.457,2.457,0,0,0,1.109-.278l.347,3.214a4.106,4.106,0,0,1-1.41.6,6.6,6.6,0,0,1-1.549.208" transform="translate(142.002 136.76)"/>
    <path id="Trazado_17" data-name="Trazado 17" d="M68.479,31.581a5.519,5.519,0,0,1-4.936-2.913,6.36,6.36,0,0,1-.751-3.121,6.1,6.1,0,0,1,.751-3.075A5.5,5.5,0,0,1,65.589,20.4a5.652,5.652,0,0,1,2.89-.751,4.275,4.275,0,0,1,2.2.624,4.018,4.018,0,0,1,1.642,2.057v-2.52h4.809V31.4H72.271v-2.15a4.228,4.228,0,0,1-1.48,1.734,4.158,4.158,0,0,1-2.312.6m1.228-3.653a2.188,2.188,0,0,0,1.619-.682A2.3,2.3,0,0,0,72,25.57a2.15,2.15,0,0,0-.67-1.63,2.389,2.389,0,0,0-3.283.035,2.343,2.343,0,0,0,0,3.283,2.256,2.256,0,0,0,1.664.67" transform="translate(142.002 136.761)"/>
    <text id="T" transform="translate(219.914 158.906)" font-size="3" font-family="HelveticaNeue-Bold, Helvetica Neue" font-weight="700"><tspan x="0" y="0">T</tspan></text>
    <text id="M" transform="translate(221.831 158.906)" font-size="3" font-family="HelveticaNeue-Bold, Helvetica Neue" font-weight="700"><tspan x="0" y="0">M</tspan></text>
  </g>
</svg>
