<svg xmlns="http://www.w3.org/2000/svg" width="30.098" height="50.747" viewBox="0 0 30.098 50.747">
  <g id="Grupo_3" data-name="Grupo 3" transform="translate(-400.428 -141.253)">
    <path id="Trazado_18" data-name="Trazado 18" d="M267.215,14.632h6.219c1.514,0,3.507,0,4.54.625a4.068,4.068,0,0,1,2.017,3.579,3.959,3.959,0,0,1-2.546,3.841v.049a3.928,3.928,0,0,1,3.267,4.131A4.87,4.87,0,0,1,275.5,31.78h-8.286ZM269.495,22h4.565c2.592,0,3.651-.936,3.651-2.738,0-2.378-1.681-2.713-3.651-2.713h-4.565Zm0,7.853h5.717a2.941,2.941,0,0,0,3.219-3.073c0-2.234-1.8-2.859-3.724-2.859h-5.212Z" transform="translate(142 141.253)" fill="#221f20"/>
    <path id="Trazado_19" data-name="Trazado 19" d="M286.544,23.213A13.043,13.043,0,1,1,273.5,10.171a13.042,13.042,0,0,1,13.044,13.042M273.5,8.182a15.024,15.024,0,1,0,15.026,15.024A15.024,15.024,0,0,0,273.5,8.182" transform="translate(142 141.253)" fill="#221f20"/>
    <rect id="Rectángulo_5" data-name="Rectángulo 5" width="29.986" height="1.971" transform="translate(400.509 182.651)" fill="#221f20"/>
    <path id="Trazado_20" data-name="Trazado 20" d="M287.436,39.228c.037,0,.072,0,.1,0a.264.264,0,0,0,.086-.02.155.155,0,0,0,.061-.052.17.17,0,0,0,.022-.1.142.142,0,0,0-.02-.083.135.135,0,0,0-.053-.048.233.233,0,0,0-.073-.025c-.028,0-.054,0-.083,0h-.214v.333Zm.072-.465a.434.434,0,0,1,.275.073.279.279,0,0,1,.091.226.264.264,0,0,1-.079.208.377.377,0,0,1-.2.078l.3.46h-.173l-.285-.45h-.171v.45H287.1V38.763Zm-.734.823a.676.676,0,0,0,.154.245.706.706,0,0,0,.233.162.735.735,0,0,0,.29.056.725.725,0,0,0,.29-.056.779.779,0,0,0,.234-.162.765.765,0,0,0,.153-.245.788.788,0,0,0,.057-.3.775.775,0,0,0-.057-.3.751.751,0,0,0-.153-.242.773.773,0,0,0-.234-.16.726.726,0,0,0-.29-.059.736.736,0,0,0-.29.059.7.7,0,0,0-.233.16.664.664,0,0,0-.154.242.775.775,0,0,0-.057.3.788.788,0,0,0,.057.3m-.148-.657a.935.935,0,0,1,.194-.281.9.9,0,0,1,.286-.188.88.88,0,0,1,.345-.067.894.894,0,0,1,.824.536.857.857,0,0,1,.072.355.847.847,0,0,1-.072.355.873.873,0,0,1-.194.285.849.849,0,0,1-.28.189.916.916,0,0,1-.35.067.9.9,0,0,1-.345-.067.855.855,0,0,1-.286-.189.905.905,0,0,1-.194-.285.831.831,0,0,1-.07-.355.84.84,0,0,1,.07-.355" transform="translate(142 141.253)" fill="#221f20"/>
    <path id="Trazado_21" data-name="Trazado 21" d="M262.143,1.576a1.206,1.206,0,0,0-.266-.3,1.224,1.224,0,0,0-.361-.2A1.237,1.237,0,0,0,261.1,1a1.389,1.389,0,0,0-.684.155,1.287,1.287,0,0,0-.455.418,1.816,1.816,0,0,0-.255.6,2.986,2.986,0,0,0-.08.692,2.769,2.769,0,0,0,.08.664,1.782,1.782,0,0,0,.255.581,1.3,1.3,0,0,0,.455.414,1.4,1.4,0,0,0,.684.155,1.1,1.1,0,0,0,.854-.334,1.548,1.548,0,0,0,.376-.88h1.154a2.737,2.737,0,0,1-.235.918,2.206,2.206,0,0,1-.5.7,2.14,2.14,0,0,1-.729.44,2.681,2.681,0,0,1-.919.152,2.788,2.788,0,0,1-1.121-.216,2.4,2.4,0,0,1-.839-.6,2.66,2.66,0,0,1-.524-.893,3.282,3.282,0,0,1-.182-1.1,3.405,3.405,0,0,1,.182-1.129,2.735,2.735,0,0,1,.524-.907,2.408,2.408,0,0,1,.839-.608,2.91,2.91,0,0,1,1.967-.091,2.3,2.3,0,0,1,.714.376,2.031,2.031,0,0,1,.52.612,2.187,2.187,0,0,1,.259.835h-1.155a.966.966,0,0,0-.136-.376" transform="translate(142 141.253)" fill="#221f20"/>
    <path id="Trazado_22" data-name="Trazado 22" d="M265.034,4.61a1.108,1.108,0,0,0,1.261.072.678.678,0,0,0,.288-.346h.95a1.8,1.8,0,0,1-.7,1.01,2.054,2.054,0,0,1-1.139.3,2.239,2.239,0,0,1-.836-.148,1.73,1.73,0,0,1-.63-.422,1.894,1.894,0,0,1-.4-.653,2.379,2.379,0,0,1-.14-.835,2.3,2.3,0,0,1,.144-.82,1.928,1.928,0,0,1,.41-.657,1.952,1.952,0,0,1,.634-.437,2.042,2.042,0,0,1,.817-.159,1.867,1.867,0,0,1,.873.193,1.746,1.746,0,0,1,.611.521,2.128,2.128,0,0,1,.346.744,2.774,2.774,0,0,1,.076.873h-2.833a1.09,1.09,0,0,0,.266.76m1.219-2.066a.758.758,0,0,0-.589-.213.941.941,0,0,0-.429.088.808.808,0,0,0-.273.216.782.782,0,0,0-.145.274,1.285,1.285,0,0,0-.049.258h1.755a1.25,1.25,0,0,0-.27-.623" transform="translate(142 141.253)" fill="#221f20"/>
    <path id="Trazado_23" data-name="Trazado 23" d="M269.112,1.625v.729h.015a1.356,1.356,0,0,1,.5-.6,1.492,1.492,0,0,1,.358-.171,1.3,1.3,0,0,1,.394-.06.825.825,0,0,1,.236.038v1q-.076-.015-.183-.027c-.07-.007-.139-.011-.205-.011a1.148,1.148,0,0,0-.5.1.86.86,0,0,0-.33.269,1.084,1.084,0,0,0-.179.4,2.2,2.2,0,0,0-.053.494V5.551h-1.078V1.625Z" transform="translate(142 141.253)" fill="#221f20"/>
    <path id="Trazado_24" data-name="Trazado 24" d="M273.5,1.625v.721h-.79V4.29a.527.527,0,0,0,.091.365.527.527,0,0,0,.364.091c.061,0,.12,0,.175-.007a1.54,1.54,0,0,0,.16-.023v.835a2.407,2.407,0,0,1-.3.03c-.111.006-.22.008-.327.008a3.109,3.109,0,0,1-.474-.034A1.117,1.117,0,0,1,272,5.422a.7.7,0,0,1-.27-.281,1,1,0,0,1-.1-.478V2.346h-.654V1.625h.654V.448h1.078V1.625Z" transform="translate(142 141.253)" fill="#221f20"/>
    <path id="Trazado_25" data-name="Trazado 25" d="M274.13.129h1.079v.889H274.13Zm1.078,5.422h-1.079V1.625h1.079Z" transform="translate(142 141.253)" fill="#221f20"/>
    <path id="Trazado_26" data-name="Trazado 26" d="M275.636,2.347V1.626h.646v-.3a1.174,1.174,0,0,1,.326-.858A1.324,1.324,0,0,1,277.6.129c.1,0,.192,0,.288.012s.19.014.281.019v.8a3.357,3.357,0,0,0-.4-.023.41.41,0,0,0-.315.1.5.5,0,0,0-.1.345v.236h.744v.721h-.744V5.552h-1.078V2.347Z" transform="translate(142 141.253)" fill="#221f20"/>
    <path id="Trazado_27" data-name="Trazado 27" d="M278.835.129h1.079v.889h-1.079Zm1.079,5.422h-1.079V1.625h1.079Z" transform="translate(142 141.253)" fill="#221f20"/>
    <path id="Trazado_28" data-name="Trazado 28" d="M281.614,4.61a1.108,1.108,0,0,0,1.261.072.68.68,0,0,0,.289-.346h.949a1.8,1.8,0,0,1-.7,1.01,2.057,2.057,0,0,1-1.14.3,2.234,2.234,0,0,1-.835-.148,1.734,1.734,0,0,1-.631-.422,1.877,1.877,0,0,1-.4-.653,2.379,2.379,0,0,1-.141-.835,2.3,2.3,0,0,1,.144-.82,1.905,1.905,0,0,1,1.045-1.094,2.034,2.034,0,0,1,.816-.159,1.874,1.874,0,0,1,.874.193,1.755,1.755,0,0,1,.611.521,2.145,2.145,0,0,1,.345.744,2.775,2.775,0,0,1,.076.873h-2.832a1.09,1.09,0,0,0,.265.76m1.219-2.066a.756.756,0,0,0-.588-.213.938.938,0,0,0-.429.088.822.822,0,0,0-.274.216.8.8,0,0,0-.144.274,1.216,1.216,0,0,0-.049.258H283.1a1.233,1.233,0,0,0-.27-.623" transform="translate(142 141.253)" fill="#221f20"/>
    <path id="Trazado_29" data-name="Trazado 29" d="M287.455,5.05a1.112,1.112,0,0,1-.5.46,1.647,1.647,0,0,1-.7.14,1.674,1.674,0,0,1-.774-.17,1.554,1.554,0,0,1-.551-.464,2.08,2.08,0,0,1-.326-.672,2.8,2.8,0,0,1-.11-.789,2.634,2.634,0,0,1,.11-.764,1.981,1.981,0,0,1,.326-.649,1.637,1.637,0,0,1,.543-.452,1.616,1.616,0,0,1,.76-.171,1.537,1.537,0,0,1,.664.148,1.161,1.161,0,0,1,.5.437h.015V.129h1.078V5.552H287.47v-.5Zm-.046-1.94a1.145,1.145,0,0,0-.155-.395.887.887,0,0,0-.285-.277.835.835,0,0,0-.441-.106.877.877,0,0,0-.448.106.848.848,0,0,0-.293.281,1.254,1.254,0,0,0-.159.4,2.157,2.157,0,0,0-.049.467,2.025,2.025,0,0,0,.053.455,1.248,1.248,0,0,0,.171.407.945.945,0,0,0,.3.288.8.8,0,0,0,.429.11.855.855,0,0,0,.445-.106.818.818,0,0,0,.285-.285,1.284,1.284,0,0,0,.151-.406,2.351,2.351,0,0,0,.046-.471,2.3,2.3,0,0,0-.046-.467" transform="translate(142 141.253)" fill="#221f20"/>
    <path id="Trazado_30" data-name="Trazado 30" d="M261.139,47.239a.827.827,0,0,0-.835-.669c-.754,0-1.037.643-1.037,1.311,0,.636.283,1.278,1.037,1.278a.859.859,0,0,0,.866-.856h.814a1.614,1.614,0,0,1-1.68,1.562,2,2,0,0,1,0-4,1.55,1.55,0,0,1,1.648,1.374Z" transform="translate(142 141.253)" fill="#221f20"/>
    <path id="Trazado_31" data-name="Trazado 31" d="M263.737,46.934a1.457,1.457,0,1,1-1.428,1.46,1.357,1.357,0,0,1,1.428-1.46m0,2.342c.519,0,.673-.444.673-.882s-.154-.888-.673-.888-.669.444-.669.888.156.882.669.882" transform="translate(142 141.253)" fill="#221f20"/>
    <path id="Trazado_32" data-name="Trazado 32" d="M265.639,47h.721v.513h.011a.978.978,0,0,1,.883-.588.577.577,0,0,1,.166.027v.7a1.489,1.489,0,0,0-.273-.026c-.557,0-.75.4-.75.888v1.246h-.758Z" transform="translate(142 141.253)" fill="#221f20"/>
    <path id="Trazado_33" data-name="Trazado 33" d="M267.717,47.009h.722v.353h.011a.917.917,0,0,1,.823-.427c.867,0,1.256.7,1.256,1.486a1.275,1.275,0,0,1-1.213,1.428.983.983,0,0,1-.829-.417h-.011v1.315h-.759ZM269.77,48.4c0-.44-.177-.893-.663-.893s-.657.444-.657.893.171.876.663.876.657-.427.657-.876" transform="translate(142 141.253)" fill="#221f20"/>
    <path id="Trazado_34" data-name="Trazado 34" d="M272.2,46.934a1.457,1.457,0,1,1-1.427,1.46,1.358,1.358,0,0,1,1.427-1.46m0,2.342c.519,0,.674-.444.674-.882s-.155-.888-.674-.888-.668.444-.668.888.155.882.668.882" transform="translate(142 141.253)" fill="#221f20"/>
    <path id="Trazado_35" data-name="Trazado 35" d="M274.1,47h.722v.513h.011a.978.978,0,0,1,.882-.588.571.571,0,0,1,.166.027v.7a1.48,1.48,0,0,0-.273-.026c-.556,0-.749.4-.749.888v1.246H274.1Z" transform="translate(142 141.253)" fill="#221f20"/>
    <path id="Trazado_36" data-name="Trazado 36" d="M276.1,47.86c.043-.712.679-.925,1.3-.925.55,0,1.214.123,1.214.785v1.439a1.391,1.391,0,0,0,.1.615h-.771a1.2,1.2,0,0,1-.054-.267,1.263,1.263,0,0,1-.93.342c-.524,0-.941-.262-.941-.829,0-.625.471-.775.941-.839s.9-.054.9-.364c0-.326-.226-.374-.492-.374-.289,0-.476.117-.5.417Zm1.755.561a1.523,1.523,0,0,1-.632.161c-.235.047-.449.128-.449.406s.22.353.466.353a.564.564,0,0,0,.615-.636Z" transform="translate(142 141.253)" fill="#221f20"/>
    <path id="Trazado_37" data-name="Trazado 37" d="M280.15,47.009h.557v.508h-.557v1.368c0,.258.065.322.321.322a1.263,1.263,0,0,0,.236-.021v.593a2.869,2.869,0,0,1-.445.027c-.464,0-.871-.108-.871-.658V47.517h-.46v-.508h.46V46.18h.759Z" transform="translate(142 141.253)" fill="#221f20"/>
    <path id="Trazado_38" data-name="Trazado 38" d="M282.039,46.581h-.759v-.626h.759Zm-.759.428h.759v2.765h-.759Z" transform="translate(142 141.253)" fill="#221f20"/>
    <path id="Trazado_39" data-name="Trazado 39" d="M283.976,46.934a1.457,1.457,0,1,1-1.427,1.46,1.358,1.358,0,0,1,1.427-1.46m0,2.342c.52,0,.674-.444.674-.882s-.154-.888-.674-.888-.668.444-.668.888.155.882.668.882" transform="translate(142 141.253)" fill="#221f20"/>
    <path id="Trazado_40" data-name="Trazado 40" d="M285.9,47.009h.722v.385h.016a.987.987,0,0,1,.845-.46c.808,0,1.011.455,1.011,1.139v1.7h-.76V48.212c0-.454-.134-.68-.486-.68-.412,0-.589.231-.589.793v1.449H285.9Z" transform="translate(142 141.253)" fill="#221f20"/>
  </g>
</svg>
