<svg xmlns="http://www.w3.org/2000/svg" xmlns:xlink="http://www.w3.org/1999/xlink" width="97.91" height="97.91" viewBox="0 0 97.91 97.91">
  <defs>
    <clipPath id="clip-path">
      <rect id="Rectángulo_1" data-name="Rectángulo 1" width="97.91" height="97.91" transform="translate(0 0)" fill="none"/>
    </clipPath>
  </defs>
  <g id="Grupo_2" data-name="Grupo 2" transform="translate(0 0)">
    <g id="Grupo_1" data-name="Grupo 1" clip-path="url(#clip-path)">
      <path id="Trazado_1" data-name="Trazado 1" d="M97.91,48.955A48.955,48.955,0,1,1,48.955,0,48.955,48.955,0,0,1,97.91,48.955" fill="#dbaeff"/>
      <path id="Trazado_2" data-name="Trazado 2" d="M66.275,52.49v-.349h1.547v.349h-.566v1.54h-.415V52.49Z" fill="#231f20"/>
      <path id="Trazado_3" data-name="Trazado 3" d="M68.622,52.14l.442,1.3h0l.418-1.3h.584v1.889h-.389V52.69h0l-.463,1.339h-.32L68.432,52.7h-.006v1.325h-.388V52.14Z" fill="#231f20"/>
      <path id="Trazado_4" data-name="Trazado 4" d="M48.6,77.429c-8.957,0-18.481-16.7-20.474-25.429,0-.012-.006-.025-.008-.037-.732-3.741-.872-5.815.4-6.77s2.873-.139,5.519,1.222c5.774,2.968,16.475,8.468,32.794.83.524-1.833,2.166-8.888-1.385-15.3-2.893-5.223-8.514-8.836-16.71-10.744-1.48.739-8.314,4.527-16.552,15.006A1.194,1.194,0,1,1,30.3,34.734,68.828,68.828,0,0,1,42.779,22.189a37.23,37.23,0,0,1,3.845-2.563c1.513-.865,1.763-.868,1.963-.87a1.1,1.1,0,0,1,.274.029c9.116,2.041,15.4,6.089,18.682,12.03,4.615,8.36,1.527,17.307,1.393,17.684a1.2,1.2,0,0,1-.608.677c-7.606,3.653-15.031,5-22.068,4.006a40.529,40.529,0,0,1-13.317-4.644,18.429,18.429,0,0,0-2.961-1.344,14.358,14.358,0,0,0,.474,4.292,46.591,46.591,0,0,0,7.328,15.233c3.819,5.289,7.761,8.323,10.816,8.323,5.02,0,11.127-9.6,14.678-18.522A1.193,1.193,0,1,1,65.5,57.4,64.6,64.6,0,0,1,58.9,69.851c-3.537,5.028-7,7.578-10.305,7.578" fill="#231f20"/>
      <path id="Trazado_5" data-name="Trazado 5" d="M50.84,69.164a2.023,2.023,0,1,1-2.023-2.024,2.024,2.024,0,0,1,2.023,2.024" fill="#231f20"/>
      <path id="Trazado_6" data-name="Trazado 6" d="M44.072,52.623a1.192,1.192,0,0,1-1.171-.974l-4.63-24.68a1.193,1.193,0,1,1,2.344-.441l4.631,24.681a1.2,1.2,0,0,1-1.174,1.414" fill="#231f20"/>
      <path id="Trazado_7" data-name="Trazado 7" d="M57.291,52.524a1.192,1.192,0,0,1-1.171-.974l-3.115-16.6a1.193,1.193,0,1,1,2.345-.44l3.115,16.6a1.2,1.2,0,0,1-1.174,1.414" fill="#231f20"/>
      <path id="Trazado_8" data-name="Trazado 8" d="M49.707,32.413a1.194,1.194,0,0,1-.384-2.324l13.143-4.47a1.193,1.193,0,0,1,.767,2.26l-13.142,4.47a1.172,1.172,0,0,1-.384.064" fill="#231f20"/>
      <path id="Trazado_9" data-name="Trazado 9" d="M67.813,49.293a1.192,1.192,0,0,1-1-.536c-.12-.182-9.911-14.726-27.762-20.88a1.194,1.194,0,0,1,.777-2.258,60.537,60.537,0,0,1,21.554,13.33,54.192,54.192,0,0,1,7.423,8.493,1.193,1.193,0,0,1-.995,1.851" fill="#231f20"/>
      <path id="Trazado_10" data-name="Trazado 10" d="M35.753,66.874a.994.994,0,0,1,0-1.989c5.848,0,7.16-1.038,8.318-1.954A6.14,6.14,0,0,1,48.6,61.409a6.63,6.63,0,0,1,4.869,1.671c1.121.886,2.281,1.8,6.557,1.8a.994.994,0,0,1,0,1.989c-4.967,0-6.532-1.237-7.79-2.231A4.739,4.739,0,0,0,48.6,63.4a4.234,4.234,0,0,0-3.3,1.094c-1.342,1.061-3.013,2.382-9.551,2.382" fill="#231f20"/>
      <path id="Trazado_11" data-name="Trazado 11" d="M58.156,60.95l-.08,0a9.208,9.208,0,0,1-5.837-2.16A4.745,4.745,0,0,0,48.6,57.545a4.231,4.231,0,0,0-3.3,1.093c-1.063.84-2.384,1.885-6.269,2.247a.995.995,0,0,1-.184-1.981c3.3-.307,4.275-1.079,5.22-1.826A6.135,6.135,0,0,1,48.6,55.555a6.633,6.633,0,0,1,4.869,1.671,7.248,7.248,0,0,0,4.762,1.738.995.995,0,0,1-.077,1.986" fill="#231f20"/>
    </g>
  </g>
</svg>
